<?xml version="1.0" encoding="UTF-8" standalone="no"?>
<!DOCTYPE svg PUBLIC "-//W3C//DTD SVG 1.1//EN"
 "http://www.w3.org/Graphics/SVG/1.1/DTD/svg11.dtd">
<!-- Generated by graphviz version 2.40.1 (20161225.0304)
 -->
<!-- Title: %3 Pages: 1 -->
<svg width="355pt" height="152pt"
 viewBox="0.00 0.00 354.64 152.00" xmlns="http://www.w3.org/2000/svg" xmlns:xlink="http://www.w3.org/1999/xlink">
<g id="graph0" class="graph" transform="scale(1 1) rotate(0) translate(4 148)">
<title>%3</title>
<polygon fill="#ffffff" stroke="transparent" points="-4,4 -4,-148 350.6384,-148 350.6384,4 -4,4"/>
<!-- X -->
<g id="node1" class="node">
<title>X</title>
<ellipse fill="none" stroke="#000000" cx="66.9441" cy="-18" rx="66.8882" ry="18"/>
<text text-anchor="middle" x="66.9441" y="-14.3" font-family="Times,serif" font-size="14.00" fill="#000000">X(exposure)</text>
</g>
<!-- Y -->
<g id="node2" class="node">
<title>Y</title>
<ellipse fill="none" stroke="#000000" cx="282.9441" cy="-18" rx="63.8893" ry="18"/>
<text text-anchor="middle" x="282.9441" y="-14.3" font-family="Times,serif" font-size="14.00" fill="#000000">Y(outcome)</text>
</g>
<!-- X&#45;&gt;Y -->
<g id="edge1" class="edge">
<title>X&#45;&gt;Y</title>
<path fill="none" stroke="#000000" d="M134.1038,-18C157.8351,-18 184.6516,-18 208.9199,-18"/>
<polygon fill="#000000" stroke="#000000" points="209.1481,-21.5001 219.1481,-18 209.148,-14.5001 209.1481,-21.5001"/>
</g>
<!-- U -->
<g id="node3" class="node">
<title>U</title>
<ellipse fill="none" stroke="#000000" cx="174.9441" cy="-126" rx="82.5854" ry="18"/>
<text text-anchor="middle" x="174.9441" y="-122.3" font-family="Times,serif" font-size="14.00" fill="#000000">C(confounding)</text>
</g>
<!-- U&#45;&gt;X -->
<g id="edge2" class="edge">
<title>U&#45;&gt;X</title>
<path fill="none" stroke="#000000" d="M157.1101,-108.166C139.26,-90.3159 111.6523,-62.7082 91.6874,-42.7434"/>
<polygon fill="#000000" stroke="#000000" points="93.9922,-40.0984 84.4462,-35.5022 89.0424,-45.0481 93.9922,-40.0984"/>
</g>
<!-- U&#45;&gt;Y -->
<g id="edge3" class="edge">
<title>U&#45;&gt;Y</title>
<path fill="none" stroke="#000000" d="M192.7781,-108.166C210.6281,-90.3159 238.2358,-62.7082 258.2007,-42.7434"/>
<polygon fill="#000000" stroke="#000000" points="260.8457,-45.0481 265.4419,-35.5022 255.8959,-40.0984 260.8457,-45.0481"/>
</g>
</g>
</svg>
