<?xml version="1.0" encoding="UTF-8" standalone="no"?>
<!DOCTYPE svg PUBLIC "-//W3C//DTD SVG 1.1//EN"
 "http://www.w3.org/Graphics/SVG/1.1/DTD/svg11.dtd">
<!-- Generated by graphviz version 2.40.1 (20161225.0304)
 -->
<!-- Title: %3 Pages: 1 -->
<svg width="387pt" height="152pt"
 viewBox="0.00 0.00 386.69 152.00" xmlns="http://www.w3.org/2000/svg" xmlns:xlink="http://www.w3.org/1999/xlink">
<g id="graph0" class="graph" transform="scale(1 1) rotate(0) translate(4 148)">
<title>%3</title>
<polygon fill="#ffffff" stroke="transparent" points="-4,4 -4,-148 382.6943,-148 382.6943,4 -4,4"/>
<!-- X -->
<g id="node1" class="node">
<title>X</title>
<ellipse fill="none" stroke="#000000" cx="99" cy="-18" rx="66.8882" ry="18"/>
<text text-anchor="middle" x="99" y="-14.3" font-family="Times,serif" font-size="14.00" fill="#000000">X(exposure)</text>
</g>
<!-- Y -->
<g id="node2" class="node">
<title>Y</title>
<ellipse fill="none" stroke="#000000" cx="315" cy="-18" rx="63.8893" ry="18"/>
<text text-anchor="middle" x="315" y="-14.3" font-family="Times,serif" font-size="14.00" fill="#000000">Y(outcome)</text>
</g>
<!-- X&#45;&gt;Y -->
<g id="edge2" class="edge">
<title>X&#45;&gt;Y</title>
<path fill="none" stroke="#000000" d="M166.1597,-18C189.891,-18 216.7076,-18 240.9758,-18"/>
<polygon fill="#000000" stroke="#000000" points="241.2041,-21.5001 251.204,-18 241.204,-14.5001 241.2041,-21.5001"/>
</g>
<!-- U -->
<g id="node3" class="node">
<title>U</title>
<ellipse fill="none" stroke="#000000" cx="207" cy="-126" rx="82.5854" ry="18"/>
<text text-anchor="middle" x="207" y="-122.3" font-family="Times,serif" font-size="14.00" fill="#000000">C(confounding)</text>
</g>
<!-- U&#45;&gt;X -->
<g id="edge3" class="edge">
<title>U&#45;&gt;X</title>
<path fill="none" stroke="#000000" d="M189.166,-108.166C171.3159,-90.3159 143.7082,-62.7082 123.7434,-42.7434"/>
<polygon fill="#000000" stroke="#000000" points="126.0481,-40.0984 116.5022,-35.5022 121.0984,-45.0481 126.0481,-40.0984"/>
</g>
<!-- U&#45;&gt;Y -->
<g id="edge4" class="edge">
<title>U&#45;&gt;Y</title>
<path fill="none" stroke="#000000" d="M224.834,-108.166C242.6841,-90.3159 270.2918,-62.7082 290.2566,-42.7434"/>
<polygon fill="#000000" stroke="#000000" points="292.9016,-45.0481 297.4978,-35.5022 287.9519,-40.0984 292.9016,-45.0481"/>
</g>
<!-- Z -->
<g id="node4" class="node">
<title>Z</title>
<ellipse fill="none" stroke="#000000" cx="27" cy="-90" rx="27" ry="18"/>
<text text-anchor="middle" x="27" y="-86.3" font-family="Times,serif" font-size="14.00" fill="#000000">Z</text>
</g>
<!-- Z&#45;&gt;X -->
<g id="edge1" class="edge">
<title>Z&#45;&gt;X</title>
<path fill="none" stroke="#000000" d="M42.2693,-74.7307C51.5933,-65.4067 63.7316,-53.2684 74.3865,-42.6135"/>
<polygon fill="#000000" stroke="#000000" points="76.8769,-45.0728 81.4731,-35.5269 71.9272,-40.1231 76.8769,-45.0728"/>
</g>
</g>
</svg>
